<svg width="150" height="40" viewBox="0 0 150 40" fill="none" xmlns="http://www.w3.org/2000/svg">
<path d="M46.6881 24.4444H43.2555V9.4486L30.7159 3.16985L18.1763 9.4486V24.3835H14.7437V8.53422C14.7437 7.98559 15.0939 7.49792 15.5843 7.25409L29.8752 0.182876C30.4357 -0.0609587 31.0661 -0.0609587 31.5565 0.182876L45.8475 7.31505C46.4079 7.55888 46.6881 8.04655 46.6881 8.59518V24.4444Z" fill="#314254"/>
<path d="M0 15.5557H3.42512V29.95L15.9373 36.6285L28.5193 29.95V15.5557H31.9444V30.7929C31.9444 31.3765 31.5949 31.8952 31.1056 32.1545L16.846 39.8056C16.2868 40.0649 15.6577 40.0649 15.1684 39.8056L0.908704 32.2194C0.349502 31.96 0.0699006 31.4413 0.0699006 30.8578V15.5557H0Z" fill="#48BBC8"/>
<path d="M126.007 14.8706C126.474 16.1109 127.069 16.8086 127.494 17.3512L136.199 28.1652H137.133L145.499 17.0411C145.839 16.6148 146.263 15.9171 146.815 14.8706C146.73 16.3434 146.645 17.3512 146.645 17.8163V31.3047H150V11.3047H146.645L136.709 24.3279L126.05 11.3047H123.077V31.3047H126.177V17.8163C126.177 17.0411 126.177 16.0334 126.007 14.8706Z" fill="#48BBC8"/>
<path d="M73.7958 11.3047H61.5386V31.3047H73.7958C77.5506 31.3047 80.356 30.9171 82.3413 29.7543C85.233 28.0489 86.9593 24.9481 86.9593 21.1884C86.9593 17.6225 85.1898 14.5217 82.3413 12.8551C80.3128 11.6923 77.5506 11.3047 73.7958 11.3047ZM73.2779 14.0179C79.8812 14.0179 83.1613 15.7621 83.1613 21.1884C83.1613 26.8473 79.9244 28.514 73.2779 28.514H65.2503V14.0179H73.2779Z" fill="#314254"/>
<path d="M111.932 14.0179V16.9248L115.126 16.1109V15.6845C115.126 12.2349 113.615 11.3047 109.904 11.3047H98.0347C94.0641 11.3047 92.8556 12.3124 92.8556 16.0334V17.7776C92.8556 21.4985 94.0641 22.5062 98.0347 22.5062H112.018V28.514H95.4452V25.2969L91.9924 26.0334V26.576C91.9924 30.2582 93.2009 31.3047 97.2147 31.3047H110.206C114.219 31.3047 115.385 30.2582 115.385 26.576V24.3279C115.385 20.7233 114.263 19.5993 110.206 19.5993H96.1789V14.0179H111.932Z" fill="#314254"/>
</svg>
